<?xml version="1.0" encoding="utf-8"?>
<!-- Generator: Adobe Illustrator 27.5.0, SVG Export Plug-In . SVG Version: 6.00 Build 0)  -->
<svg version="1.1" xmlns="http://www.w3.org/2000/svg" xmlns:xlink="http://www.w3.org/1999/xlink" x="0px" y="0px"
	 viewBox="0 0 600 800" style="enable-background:new 0 0 600 800;" xml:space="preserve">
<style type="text/css">
	.st0{fill:none;}
	.st1{opacity:0.8;fill:#DAE8A7;}
	.st2{display:none;}
	.st3{display:inline;fill:none;stroke:#000000;stroke-miterlimit:10;}
	.st4{opacity:0.8;fill:#DAE8A7;stroke:url(#SVGID_1_);stroke-miterlimit:10;}
	.st5{opacity:0.8;fill:#8FD0F2;}
	.st6{display:inline;fill:#F8F6C1;}
</style>
<pattern  width="308" height="233.25" patternUnits="userSpaceOnUse" id="Unnamed_Pattern" viewBox="0.41 -233.42 308 233.25" style="overflow:visible;">
	<g>
		<rect x="0.41" y="-233.42" class="st0" width="308" height="233.25"/>
		<path class="st1" d="M267.83-0.17c0,0,40.68,0.17,40.58-38.65c-0.1-38.54-40.58-38.46-40.58-38.46l-152.22,0.12
			c0,0-38.36-0.05-38.68-38.18c-0.31-36.44,38.41-38.58,38.41-38.58h152.45c0,0,39.79-0.19,39.7-38.32
			c-0.08-36.92-39.9-41.17-39.9-41.17H116.03c0,0-115.2,2.8-115.61,118.26C0,0,115.71-0.17,115.71-0.17H267.83z"/>
	</g>
</pattern>
<g id="Layer_1" class="st2">
	<path class="st3" d="M188.82,505.12c0,0-0.17,40.7,38.66,40.6c38.56-0.1,38.48-40.6,38.48-40.6l-0.12-152.28
		c0,0,0.11-38.48,38.26-38.81c36.46-0.31,38.53,38.53,38.53,38.53v152.51c0,0-0.15,39.16,37.99,39.08
		c36.93-0.08,38.26-39.35,38.26-39.35V352.93c0,0,0.48-114.93-115.03-115.34c-115.21-0.41-115.03,115.34-115.03,115.34V505.12z"/>
</g>
<g id="Layer_2">
	<pattern  id="SVGID_1_" xlink:href="#Unnamed_Pattern" patternTransform="matrix(1 0 0 1 -0.7625 0.1089)">
	</pattern>
	<path class="st4" d="M378.58,546.73c0,0,40.68,0.17,40.58-38.65c-0.1-38.54-40.58-38.46-40.58-38.46l-152.22,0.12
		c0,0-38.36-0.05-38.68-38.18c-0.31-36.44,38.41-38.58,38.41-38.58h152.45c0,0,39.79-0.19,39.7-38.32
		c-0.08-36.92-39.9-41.17-39.9-41.17H226.78c0,0-115.2,2.8-115.61,118.26c-0.41,115.16,115.3,114.99,115.3,114.99H378.58z"/>
	<path class="st5" d="M188.61,511.27c0,0-0.36,34.86,38.47,34.76c38.56-0.1,38.84-34.76,38.84-34.76l-0.12-159.07
		c0,0,0.11-38.48,38.26-38.81c36.46-0.31,38.53,38.53,38.53,38.53l0.1,150.12c0,0,0.91,42.38,39.06,42.29
		c36.93-0.08,37.97-31.91,37.97-31.91l-0.88-160.13c0,0,0.48-114.93-115.03-115.34c-115.21-0.41-115.41,114.41-115.41,114.41
		L188.61,511.27z"/>
</g>
<g id="Layer_3" class="st2">
	<path class="st6" d="M188.41,431.7c0,0-2.41-33.38,36.31-38.59h41.12v-42.34c0,0,0.94-36.05,37.04-37.23l-74.03-0.15
		c0,0-17.44,0.5-35.6,6.31c0,0-5.81,22.52-4.83,30.37L188.41,431.7z"/>
	<path class="st6" d="M342.7,393.12h37.41c0,0,39.91-2.11,38.49-39.66c-1.42-37.55-39.49-39.85-39.49-39.85l-76.23-0.06
		c0,0,36.11-2.35,39.82,39.9V393.12z"/>
	<path class="st6" d="M188.41,431.7c0,0-0.97,34.06,35.2,37.88c0.3,0.03,0.6,0.06,0.9,0.09h41.33v44.46c0,0-1.89,33.32-41.07,31.76
		c0,0-33.65,1.59-36.43-33.77L188.41,431.7z"/>
	<path class="st6" d="M403.72,510.93"/>
	<path class="st6" d="M342.48,469.65l38.12,0.02c0,0,20.94-0.17,30.52,12.75s8.62,27.45,8.62,27.45s0.44,36.54-38.3,35.75
		c-38.74-0.8-38.74-33.51-38.74-33.51L342.48,469.65z"/>
</g>
</svg>
